# This file uses centimeters as units for non-parametric coordinates.

mtllib Pfeil_01.mtl
g default
v -0.099991 -1.011501 0.050000
v -0.111492 -0.988499 0.038499
v -0.122993 -1.000000 0.038499
v -0.122993 1.000000 0.038499
v -0.111492 0.988499 0.038499
v -0.099991 1.011501 0.050000
v 0.122993 -1.000000 0.038499
v 0.111492 -0.988499 0.038499
v 0.099991 -1.011501 0.050000
v 0.099991 1.011501 0.050000
v 0.111492 0.988499 0.038499
v 0.122993 1.000000 0.038499
v -0.099991 1.011501 -0.050000
v -0.111492 0.988499 -0.038499
v -0.122993 1.000000 -0.038499
v 0.122993 1.000000 -0.038499
v 0.111492 0.988499 -0.038499
v 0.099991 1.011501 -0.050000
v -0.122993 -1.000000 -0.038499
v -0.111492 -0.988499 -0.038499
v -0.099991 -1.011501 -0.050000
v 0.099991 -1.011501 -0.050000
v 0.111492 -0.988499 -0.038499
v 0.122993 -1.000000 -0.038499
v -0.000000 1.649177 0.028894
v 0.007382 1.674244 0.022861
v -0.007382 1.674244 0.022861
v -0.007382 1.674244 -0.022861
v 0.006632 1.676959 -0.023474
v 0.000000 1.649177 -0.028894
v -0.000000 -1.649177 -0.028894
v 0.007382 -1.674244 -0.022861
v -0.007382 -1.674244 -0.022861
v -0.007382 -1.674244 0.022861
v 0.006632 -1.676959 0.023474
v 0.000000 -1.649177 0.028894
v 0.178141 1.011853 0.050000
v 0.180429 1.000000 0.038621
v 0.190175 1.012805 0.038621
v 0.190175 1.012805 -0.038621
v 0.180572 1.000000 -0.038743
v 0.178141 1.011853 -0.050000
v -0.190175 1.012805 0.038621
v -0.180572 1.000000 0.038743
v -0.178141 1.011853 0.050000
v -0.178141 1.011853 -0.050000
v -0.180429 1.000000 -0.038621
v -0.190175 1.012805 -0.038621
v 0.178141 -1.011853 -0.050000
v 0.180429 -1.000000 -0.038621
v 0.190175 -1.012805 -0.038621
v 0.190175 -1.012805 0.038621
v 0.180572 -1.000000 0.038743
v 0.178141 -1.011853 0.050000
v -0.190175 -1.012805 -0.038621
v -0.180572 -1.000000 -0.038743
v -0.178141 -1.011853 -0.050000
v -0.178141 -1.011853 0.050000
v -0.180429 -1.000000 0.038621
v -0.190175 -1.012805 0.038621
v -0.122941 -1.011605 0.050000
v -0.099991 -0.988499 0.050000
v -0.099991 0.988499 0.050000
v -0.122941 1.011605 0.050000
v 0.099991 -0.988499 0.050000
v 0.122941 -1.011605 0.050000
v 0.122941 1.011605 0.050000
v 0.099991 0.988499 0.050000
v -0.122941 1.011605 -0.050000
v -0.099991 0.988499 -0.050000
v 0.099991 0.988499 -0.050000
v 0.122941 1.011605 -0.050000
v -0.099991 -0.988499 -0.050000
v -0.122941 -1.011605 -0.050000
v 0.122941 -1.011605 -0.050000
v 0.099991 -0.988499 -0.050000
vt 0.153753 0.000000
vt 0.346247 0.250000
vt 0.653753 0.000000
vt 0.846247 0.250000
vt 0.500000 0.250000
vt 0.622886 0.250000
vt 0.504764 0.276100
vt 0.377114 0.500000
vt 0.504279 0.476552
vt 0.500000 0.750000
vt 0.622886 0.750000
vt 0.504764 0.776100
vt 0.377114 1.000000
vt 0.504280 0.976552
vt 0.625000 0.278447
vt 0.625000 0.471858
vt 0.622716 0.471552
vt 0.377284 0.278448
vt 0.377284 0.471552
vt 0.375000 0.471553
vt 0.625000 0.778448
vt 0.625000 0.971858
vt 0.622716 0.971552
vt 0.377284 0.778448
vt 0.377284 0.971552
vt 0.375000 0.971552
vt 0.622716 0.278448
vt 0.495236 0.276100
vt 0.495236 0.473900
vt 0.622716 0.778448
vt 0.495236 0.776100
vt 0.495236 0.973900
vt 0.625000 0.278753
vt 0.375000 0.471247
vt 0.375000 0.278142
vt 0.612105 0.059783
vt 0.612105 0.250000
vt 0.377113 0.250000
vt 0.387895 0.250000
vt 0.387895 0.956625
vt 0.500000 0.963065
vt 0.622887 0.850436
vt 0.625000 0.778753
vt 0.625000 0.971247
vt 0.375000 0.971247
vt 0.375000 0.778142
vt 0.612105 0.750000
vt 0.377113 0.750000
vt 0.387895 0.750000
vt 0.387895 0.500000
vt 0.500000 0.500000
vt 0.622887 0.500000
vt 0.612105 0.500000
vt 0.346247 0.000000
vt 0.346241 0.001436
vt 0.375000 0.278753
vt 0.346247 0.248562
vt 0.625000 0.139875
vt 0.625000 0.840154
vt 0.653753 0.001436
vt 0.653753 0.248562
vt 0.653753 0.250000
vt 0.153753 0.250000
vt 0.625000 0.471247
vt 0.846247 0.248562
vt 0.153753 0.248562
vt 0.375000 0.778753
vt 0.153753 0.001436
vt 0.846241 0.001436
vt 0.846247 0.000000
vt 0.377930 0.967925
vt 0.346247 0.001969
vt 0.346247 0.005893
vt 0.383770 0.961303
vt 0.383770 0.259198
vt 0.346247 0.244107
vt 0.346247 0.248031
vt 0.377930 0.272220
vt 0.612105 0.061945
vt 0.639376 0.069937
vt 0.639377 0.264377
vt 0.612105 0.247837
vt 0.377930 0.477780
vt 0.153753 0.248031
vt 0.153753 0.244107
vt 0.383770 0.490802
vt 0.846247 0.244107
vt 0.616230 0.490802
vt 0.846247 0.248031
vt 0.622070 0.477780
vt 0.383770 0.759198
vt 0.153753 0.005893
vt 0.153753 0.001969
vt 0.377930 0.772220
vt 0.622070 0.772220
vt 0.846247 0.001969
vt 0.846247 0.005893
vt 0.616230 0.759198
vn -0.707107 0.707106 0.000000
vn -0.707107 0.707106 0.000000
vn -0.707108 0.707106 0.000000
vn -0.707108 0.707105 0.000000
vn -0.707108 -0.707105 0.000000
vn -0.707108 -0.707106 0.000000
vn -0.707107 -0.707106 0.000000
vn -0.707107 -0.707106 0.000000
vn 0.707108 0.707105 0.000000
vn 0.707108 0.707106 0.000000
vn 0.707107 0.707106 0.000000
vn 0.707107 0.707106 0.000000
vn 0.707107 -0.707106 0.000000
vn 0.707107 -0.707106 0.000000
vn 0.707108 -0.707106 0.000000
vn 0.707108 -0.707105 0.000000
vn -0.352568 0.119549 0.928119
vn -0.659284 0.208066 0.722533
vn -0.356058 0.120569 0.926653
vn -0.663071 0.209140 0.718747
vn 0.352568 0.119549 0.928118
vn 0.356058 0.120570 0.926653
vn 0.659285 0.208067 0.722531
vn 0.663072 0.209141 0.718746
vn 0.000000 1.000000 0.000000
vn -0.035794 0.999292 0.011559
vn -0.151092 0.987315 0.048791
vn -0.187286 0.980442 0.060479
vn -0.352567 0.119549 -0.928119
vn -0.356057 0.120569 -0.926653
vn -0.659287 0.208067 -0.722530
vn -0.663074 0.209141 -0.718744
vn 0.315332 0.108645 -0.942742
vn 0.659013 0.207990 -0.722802
vn 0.319188 0.109775 -0.941312
vn 0.663074 0.209141 -0.718744
vn -0.352567 -0.119549 -0.928119
vn -0.659287 -0.208067 -0.722530
vn -0.356056 -0.120569 -0.926654
vn -0.663074 -0.209141 -0.718744
vn 0.352566 -0.119548 -0.928119
vn 0.356056 -0.120569 -0.926654
vn 0.659287 -0.208067 -0.722530
vn 0.663074 -0.209141 -0.718744
vn 0.000000 -1.000000 0.000000
vn -0.035794 -0.999292 -0.011559
vn -0.151092 -0.987315 -0.048791
vn -0.187286 -0.980442 -0.060479
vn -0.352566 -0.119548 0.928119
vn -0.356056 -0.120569 0.926654
vn -0.659286 -0.208067 0.722530
vn -0.663073 -0.209141 0.718745
vn 0.315332 -0.108645 0.942742
vn 0.659013 -0.207990 0.722802
vn 0.319187 -0.109775 0.941312
vn 0.663073 -0.209141 0.718744
vn 0.795729 -0.605653 0.000000
vn 0.796285 -0.604922 0.000191
vn 0.799443 -0.600741 0.001283
vn 0.799998 -0.600002 0.001476
vn -0.799997 -0.600002 -0.001476
vn -0.799442 -0.600742 -0.001283
vn -0.796285 -0.604922 -0.000191
vn -0.795729 -0.605653 0.000000
vn 0.795729 0.605653 0.000000
vn 0.796285 0.604922 -0.000191
vn 0.799443 0.600741 -0.001283
vn 0.799998 0.600002 -0.001476
vn -0.799997 0.600002 0.001476
vn -0.799442 0.600742 0.001283
vn -0.796285 0.604922 0.000191
vn -0.795729 0.605653 0.000000
vn 1.000000 0.000000 0.000000
vn 1.000000 0.000000 0.000000
vn 1.000000 0.000000 0.000000
vn 1.000000 0.000000 0.000000
vn -1.000000 0.000000 0.000000
vn -1.000000 0.000000 0.000000
vn -1.000000 0.000000 0.000000
vn -1.000000 0.000000 0.000000
vn 0.963870 0.266372 0.000000
vn 0.963870 0.266372 0.000000
vn 0.963870 0.266372 0.000002
vn 0.963870 0.266372 0.000002
vn -0.963870 0.266372 0.000000
vn -0.963870 0.266372 -0.000000
vn -0.963870 0.266372 -0.000001
vn -0.963870 0.266372 -0.000001
vn 0.963870 -0.266372 0.000000
vn 0.963870 -0.266372 -0.000000
vn 0.963870 -0.266372 -0.000000
vn 0.963870 -0.266372 -0.000001
vn -0.963870 -0.266372 0.000000
vn -0.963870 -0.266372 0.000000
vn -0.963870 -0.266372 0.000000
vn -0.963870 -0.266372 0.000000
vn 0.000000 -1.000000 0.000000
vn 0.000000 -1.000000 0.000000
vn 0.000000 -1.000000 0.000000
vn 0.000000 -1.000000 0.000000
vn 0.000000 -1.000000 0.000000
vn 0.000000 -1.000000 0.000000
vn 0.000000 -1.000000 0.000000
vn 0.000000 -1.000000 0.000000
vn 0.000000 0.033099 0.999452
vn -0.000000 0.033099 0.999452
vn 0.000000 0.033099 0.999452
vn -0.000000 0.000000 1.000000
vn -0.000000 0.000000 1.000000
vn 0.000000 0.000000 1.000000
vn 0.000000 0.000000 1.000000
vn 0.000000 -0.033099 0.999452
vn 0.000000 -0.033099 0.999452
vn 0.000000 -0.033099 0.999452
vn 0.000000 0.000000 1.000000
vn 0.000000 0.000000 1.000000
vn -0.000000 0.000000 1.000000
vn -0.000000 0.000000 1.000000
vn -0.000000 0.000000 1.000000
vn 0.000000 0.000000 1.000000
vn -0.000000 0.000000 1.000000
vn 0.000000 0.000000 1.000000
vn 0.000000 1.000000 0.000000
vn 0.000000 1.000000 0.000000
vn 0.000000 1.000000 0.000000
vn 0.000000 1.000000 0.000000
vn 0.000000 1.000000 0.000000
vn 0.000000 1.000000 0.000000
vn 0.000000 1.000000 0.000000
vn 0.000000 1.000000 0.000000
vn 0.000000 -0.033099 -0.999452
vn -0.000000 -0.033099 -0.999452
vn 0.000000 -0.033099 -0.999452
vn -0.000000 0.000000 -1.000000
vn -0.000000 0.000000 -1.000000
vn 0.000000 0.000000 -1.000000
vn 0.000000 0.000000 -1.000000
vn 0.000000 0.033099 -0.999452
vn 0.000000 0.033099 -0.999452
vn 0.000000 0.033099 -0.999452
vn 0.000000 0.000000 -1.000000
vn 0.000000 0.000000 -1.000000
vn -0.000000 0.000000 -1.000000
vn -0.000000 0.000000 -1.000000
vn -0.000000 0.000000 -1.000000
vn 0.000000 0.000000 -1.000000
vn 0.000000 0.000000 -1.000000
vn -0.000000 0.000000 -1.000000
vn -0.000000 0.234002 0.972236
vn -0.000000 0.234002 0.972236
vn -0.000000 0.234002 0.972236
vn -0.083290 0.209935 -0.974161
vn -0.083290 0.209935 -0.974161
vn -0.083290 0.209935 -0.974161
vn 0.000000 -0.234000 -0.972237
vn 0.000000 -0.234000 -0.972237
vn 0.000000 -0.234000 -0.972237
vn -0.083290 -0.209933 0.974162
vn -0.083290 -0.209933 0.974162
vn -0.083290 -0.209933 0.974162
vn 0.624124 -0.475042 0.620326
vn 0.624124 -0.475042 0.620326
vn 0.624124 -0.475042 0.620326
vn 0.627506 -0.464657 -0.624764
vn 0.627506 -0.464657 -0.624764
vn 0.627506 -0.464657 -0.624764
vn -0.627506 -0.464657 0.624764
vn -0.627506 -0.464657 0.624764
vn -0.627506 -0.464657 0.624764
vn -0.624124 -0.475042 -0.620326
vn -0.624124 -0.475042 -0.620326
vn -0.624124 -0.475042 -0.620326
vn 0.624124 0.475042 -0.620326
vn 0.624124 0.475042 -0.620326
vn 0.624124 0.475042 -0.620326
vn 0.627506 0.464657 0.624764
vn 0.627506 0.464657 0.624764
vn 0.627506 0.464657 0.624764
vn -0.627506 0.464657 -0.624764
vn -0.627506 0.464657 -0.624764
vn -0.627506 0.464657 -0.624764
vn -0.624124 0.475042 0.620326
vn -0.624124 0.475042 0.620326
vn -0.624124 0.475042 0.620326
vn 0.001535 0.692686 0.721238
vn 0.000771 0.694524 0.719469
vn -0.002270 0.701795 0.712376
vn -0.003168 0.703928 0.710264
vn -0.577342 0.573454 0.581229
vn -0.577347 0.574748 0.579944
vn -0.577344 0.574010 0.580678
vn -0.577353 0.577350 0.577348
vn -0.707107 0.000000 0.707107
vn -0.707107 0.000000 0.707107
vn -0.707107 0.000000 0.707107
vn -0.707107 0.000000 0.707107
vn -0.003168 -0.703928 0.710264
vn 0.002067 -0.691404 0.722465
vn -0.001982 -0.701111 0.713049
vn 0.003077 -0.688960 0.724793
vn -0.577353 -0.577350 0.577348
vn -0.577347 -0.574748 0.579944
vn -0.577344 -0.574010 0.580678
vn -0.577342 -0.573454 0.581229
vn 0.003168 0.703928 0.710264
vn -0.002067 0.691404 0.722465
vn 0.001982 0.701111 0.713049
vn -0.003077 0.688960 0.724793
vn 0.577353 0.577350 0.577348
vn 0.577347 0.574748 0.579944
vn 0.577344 0.574010 0.580678
vn 0.577342 0.573454 0.581229
vn -0.001535 -0.692686 0.721238
vn -0.000771 -0.694524 0.719469
vn 0.002270 -0.701795 0.712376
vn 0.003168 -0.703928 0.710264
vn 0.707107 0.000000 0.707107
vn 0.707107 0.000000 0.707107
vn 0.707107 0.000000 0.707107
vn 0.707107 0.000000 0.707107
vn 0.577342 -0.573454 0.581229
vn 0.577347 -0.574748 0.579944
vn 0.577344 -0.574010 0.580678
vn 0.577353 -0.577350 0.577348
vn 0.001535 -0.692686 -0.721238
vn 0.000771 -0.694524 -0.719469
vn -0.002270 -0.701795 -0.712376
vn -0.003168 -0.703928 -0.710264
vn -0.577342 -0.573454 -0.581229
vn -0.577347 -0.574748 -0.579944
vn -0.577344 -0.574010 -0.580678
vn -0.577353 -0.577350 -0.577348
vn 0.003168 -0.703928 -0.710264
vn -0.002067 -0.691404 -0.722465
vn 0.001982 -0.701111 -0.713049
vn -0.003077 -0.688960 -0.724793
vn 0.577353 -0.577350 -0.577348
vn 0.577347 -0.574748 -0.579944
vn 0.577344 -0.574010 -0.580678
vn 0.577342 -0.573454 -0.581229
vn -0.707107 0.000000 -0.707107
vn -0.707107 0.000000 -0.707107
vn -0.707107 0.000000 -0.707107
vn -0.707107 0.000000 -0.707107
vn -0.003168 0.703928 -0.710264
vn 0.002067 0.691404 -0.722465
vn -0.001982 0.701111 -0.713049
vn 0.003077 0.688960 -0.724793
vn -0.577353 0.577350 -0.577348
vn -0.577347 0.574748 -0.579944
vn -0.577344 0.574010 -0.580678
vn -0.577342 0.573454 -0.581229
vn -0.001535 0.692686 -0.721238
vn -0.000771 0.694524 -0.719469
vn 0.002270 0.701795 -0.712376
vn 0.003168 0.703928 -0.710264
vn 0.707107 0.000000 -0.707107
vn 0.707107 0.000000 -0.707107
vn 0.707107 0.000000 -0.707107
vn 0.707107 0.000000 -0.707107
vn 0.577342 0.573454 -0.581229
vn 0.577347 0.574748 -0.579944
vn 0.577344 0.574010 -0.580678
vn 0.577353 0.577350 -0.577348
s 1
g pCube1
usemtl initialShadingGroup
f 3/54/1 2/55/2 19/1/3
f 19/1/3 2/55/2 20/68/4
s 2
f 5/57/5 4/2/6 14/66/7
f 14/66/7 4/2/6 15/63/8
s 3
f 8/60/9 7/3/10 23/69/11
f 23/69/11 7/3/10 24/70/12
s 4
f 12/62/13 11/61/14 16/4/15
f 16/4/15 11/61/14 17/65/16
s 5
f 27/28/17 43/18/18 25/5/19
f 25/5/19 43/18/18 45/38/20
s 6
f 26/7/21 25/5/22 39/27/23
f 39/27/23 25/5/22 37/6/24
s 7
f 27/28/25 26/7/26 28/29/27
f 28/29/27 26/7/26 29/9/28
s 8
f 28/29/29 30/51/30 48/19/31
f 48/19/31 30/51/30 46/8/32
s 9
f 29/9/33 40/17/34 30/51/35
f 30/51/35 40/17/34 42/52/36
s 10
f 33/31/37 55/24/38 31/10/39
f 31/10/39 55/24/38 57/48/40
s 11
f 32/12/41 31/10/42 51/30/43
f 51/30/43 31/10/42 49/11/44
s 12
f 33/31/45 32/12/46 34/32/47
f 34/32/47 32/12/46 35/14/48
s 13
f 34/32/49 36/41/50 60/25/51
f 60/25/51 36/41/50 58/13/52
s 14
f 35/14/53 52/23/54 36/41/55
f 36/41/55 52/23/54 54/42/56
s 15
f 39/27/57 38/15/58 40/17/59
f 40/17/59 38/15/58 41/16/60
s 16
f 44/35/61 43/18/62 47/20/63
f 47/20/63 43/18/62 48/19/64
s 17
f 51/30/65 50/21/66 52/23/67
f 52/23/67 50/21/66 53/22/68
s 18
f 56/46/69 55/24/70 59/26/71
f 59/26/71 55/24/70 60/25/72
s 19
f 8/60/73 23/69/74 11/61/75
f 11/61/75 23/69/74 17/65/76
s 20
f 20/68/77 2/55/78 14/66/79
f 14/66/79 2/55/78 5/57/80
s 21
f 39/27/81 40/17/82 26/7/83
f 26/7/83 40/17/82 29/9/84
s 22
f 48/19/85 43/18/86 28/29/87
f 28/29/87 43/18/86 27/28/88
s 23
f 51/30/89 52/23/90 32/12/91
f 32/12/91 52/23/90 35/14/92
s 24
f 60/25/93 55/24/94 34/32/95
f 34/32/95 55/24/94 33/31/96
s 25
f 12/33/97 16/64/98 38/15/99
f 38/15/99 16/64/98 41/16/100
s 26
f 15/34/101 4/56/102 47/20/103
f 47/20/103 4/56/102 44/35/104
s 27
f 25/5/105 45/38/106 37/6/107
f 37/6/107 45/38/106 67/81/108
f 67/81/108 45/38/106 10/37/109
f 45/38/106 64/78/110 10/37/109
f 64/78/110 6/39/111 10/37/109
f 36/41/112 54/42/113 58/13/114
f 58/13/114 54/42/113 61/71/115
f 61/71/115 54/42/113 1/40/116
f 54/42/113 66/80/117 1/40/116
f 66/80/117 9/36/118 1/40/116
f 9/36/118 65/79/119 1/40/116
f 1/40/116 65/79/119 62/74/120
f 65/79/119 68/82/121 62/74/120
f 10/37/109 6/39/111 68/82/121
f 6/39/111 63/75/122 68/82/121
f 68/82/121 63/75/122 62/74/120
s 29
f 24/43/123 7/44/124 50/21/125
f 50/21/125 7/44/124 53/22/126
s 30
f 3/45/127 19/67/128 59/26/129
f 59/26/129 19/67/128 56/46/130
s 31
f 31/10/131 57/48/132 49/11/133
f 49/11/133 57/48/132 75/95/134
f 75/95/134 57/48/132 22/47/135
f 57/48/132 74/94/136 22/47/135
f 74/94/136 21/49/137 22/47/135
f 30/51/138 42/52/139 46/8/140
f 46/8/140 42/52/139 69/83/141
f 69/83/141 42/52/139 13/50/142
f 42/52/139 72/90/143 13/50/142
f 72/90/143 18/53/144 13/50/142
f 22/47/135 21/49/137 76/98/145
f 21/49/137 73/91/146 76/98/145
f 73/91/146 70/86/147 76/98/145
f 13/50/142 18/53/144 70/86/147
f 18/53/144 71/88/148 70/86/147
f 70/86/147 71/88/148 76/98/145
s off
f 25/5/149 26/7/150 27/28/151
f 28/29/152 29/9/153 30/51/154
f 31/10/155 32/12/156 33/31/157
f 34/32/158 35/14/159 36/41/160
f 37/6/161 38/15/162 39/27/163
f 40/17/164 41/16/165 42/52/166
f 43/18/167 44/35/168 45/38/169
f 46/8/170 47/20/171 48/19/172
f 49/11/173 50/21/174 51/30/175
f 52/23/176 53/22/177 54/42/178
f 55/24/179 56/46/180 57/48/181
f 58/13/182 59/26/183 60/25/184
s 33
f 59/26/185 58/13/186 3/45/187
f 3/45/187 58/13/186 61/71/188
s 27
f 1/40/116 62/74/120 61/71/115
s 34
f 61/72/189 62/73/190 3/54/191
f 3/54/191 62/73/190 2/55/192
s 35
f 2/55/193 62/73/194 5/57/195
f 5/57/195 62/73/194 63/76/196
s 36
f 64/78/197 45/38/198 4/56/199
f 4/56/199 45/38/198 44/35/200
s 27
f 6/39/111 64/78/110 63/75/122
s 37
f 5/57/201 63/76/202 4/2/203
f 4/2/203 63/76/202 64/77/204
s 38
f 66/80/205 54/42/206 7/58/207
f 7/58/207 54/42/206 53/59/208
s 27
f 9/36/118 66/80/117 65/79/119
s 39
f 8/60/209 65/79/210 7/3/211
f 7/3/211 65/79/210 66/80/212
s 40
f 38/15/213 37/6/214 12/33/215
f 12/33/215 37/6/214 67/81/216
s 41
f 8/60/217 11/61/218 65/79/219
f 65/79/219 11/61/218 68/82/220
s 27
f 10/37/109 68/82/121 67/81/108
s 42
f 67/81/221 68/82/222 12/62/223
f 12/62/223 68/82/222 11/61/224
s 43
f 47/20/225 46/8/226 15/34/227
f 15/34/227 46/8/226 69/83/228
s 31
f 13/50/142 70/86/147 69/83/141
s 44
f 69/84/229 70/85/230 15/63/231
f 15/63/231 70/85/230 14/66/232
s 45
f 72/90/233 42/52/234 16/64/235
f 16/64/235 42/52/234 41/16/236
s 31
f 18/53/144 72/90/143 71/88/148
s 46
f 17/65/237 71/87/238 16/4/239
f 16/4/239 71/87/238 72/89/240
s 47
f 14/66/241 70/85/242 20/68/243
f 20/68/243 70/85/242 73/92/244
s 48
f 74/94/245 57/48/246 19/67/247
f 19/67/247 57/48/246 56/46/248
s 31
f 21/49/137 74/94/136 73/91/146
s 49
f 20/68/249 73/92/250 19/1/251
f 19/1/251 73/92/250 74/93/252
s 50
f 50/21/253 49/11/254 24/43/255
f 24/43/255 49/11/254 75/95/256
s 51
f 17/65/257 23/69/258 71/87/259
f 71/87/259 23/69/258 76/97/260
s 31
f 22/47/135 76/98/145 75/95/134
s 52
f 75/96/261 76/97/262 24/70/263
f 24/70/263 76/97/262 23/69/264
