# This file uses centimeters as units for non-parametric coordinates.

mtllib deckplatte.mtl
g default
v 372.199860 118.554939 -1952.680542
v 372.730591 118.554939 -1952.149780
v 372.730591 119.616501 -1952.680542
v 372.199860 119.085770 -1952.680542
v 372.730591 119.085770 -1952.149780
v 372.730591 118.554939 -1978.232300
v 372.199860 118.554939 -1977.701538
v 372.730591 119.085770 -1978.232300
v 372.199860 119.085770 -1977.701538
v 372.730591 119.616501 -1977.701538
v 448.769409 118.554939 -1952.149780
v 449.300140 118.554939 -1952.680542
v 448.769409 119.616501 -1952.680542
v 448.769409 119.085770 -1952.149780
v 449.300140 119.085770 -1952.680542
v 449.300140 118.554939 -1977.701538
v 448.769409 118.554939 -1978.232300
v 448.769409 119.616501 -1977.701538
v 449.300140 119.085770 -1977.701538
v 448.769409 119.085770 -1978.232300
vt 0.715037 0.333104
vt 0.708179 0.333104
vt 0.708179 0.009871
vt 0.715037 0.009871
vt 0.708179 0.339960
vt 0.715037 0.339960
vt 0.708179 0.003014
vt 0.715037 0.003014
vt 0.721893 0.009871
vt 0.721893 0.333104
vt 0.732837 0.333102
vt 0.725979 0.333102
vt 0.725979 0.009869
vt 0.732837 0.009869
vt 0.725979 0.339958
vt 0.732837 0.339958
vt 0.725979 0.003013
vt 0.732837 0.003013
vt 0.739694 0.333102
vt 0.739694 0.009869
vt 0.008333 0.998008
vt 0.001476 0.991150
vt 0.001476 0.008846
vt 0.008333 0.001992
vt 0.331566 0.001992
vt 0.338422 0.008846
vt 0.338422 0.991150
vt 0.331566 0.998008
vt 0.675124 0.986604
vt 0.351891 0.986604
vt 0.351891 0.004300
vt 0.675124 0.004300
vt 0.345035 0.986604
vt 0.345035 0.004300
vt 0.681980 0.986604
vt 0.681980 0.004300
vt 0.693674 0.986731
vt 0.686816 0.986731
vt 0.686816 0.004427
vt 0.693674 0.004427
vt 0.697497 0.985790
vt 0.697497 0.003487
vt 0.704355 0.003487
vt 0.704355 0.985790
vn 0.000000 -1.000000 -0.000000
vn 0.000000 -1.000000 -0.000000
vn 0.000000 -1.000000 -0.000000
vn 0.000000 -1.000000 -0.000000
vn 0.000000 -1.000000 -0.000000
vn 0.000000 -1.000000 -0.000000
vn 0.000000 -1.000000 -0.000000
vn 0.000000 -1.000000 -0.000000
vn -0.707121 0.000000 0.707092
vn -0.707121 0.000000 0.707092
vn -0.707121 0.000000 0.707092
vn -0.707121 0.000000 0.707092
vn 0.000000 0.707133 0.707080
vn 0.000000 0.707133 0.707080
vn 0.000000 0.707133 0.707080
vn 0.000000 0.707133 0.707080
vn -0.707110 0.707104 0.000000
vn -0.707110 0.707104 0.000000
vn -0.707110 0.707104 0.000000
vn -0.707110 0.707104 0.000000
vn -0.707121 0.000000 -0.707092
vn -0.707121 0.000000 -0.707092
vn -0.707121 0.000000 -0.707092
vn -0.707121 0.000000 -0.707092
vn 0.000000 0.707133 -0.707080
vn 0.000000 0.707133 -0.707080
vn 0.000000 0.707133 -0.707080
vn 0.000000 0.707133 -0.707080
vn 0.707121 0.000000 0.707092
vn 0.707121 0.000000 0.707092
vn 0.707121 0.000000 0.707092
vn 0.707121 0.000000 0.707092
vn 0.707084 0.707129 0.000000
vn 0.707084 0.707129 0.000000
vn 0.707084 0.707129 0.000000
vn 0.707084 0.707129 0.000000
vn 0.707121 0.000000 -0.707092
vn 0.707121 0.000000 -0.707092
vn 0.707121 0.000000 -0.707092
vn 0.707121 0.000000 -0.707092
vn 0.000000 1.000000 0.000000
vn 0.000000 1.000000 0.000000
vn 0.000000 1.000000 0.000000
vn 0.000000 1.000000 0.000000
vn 0.000000 0.000000 1.000000
vn 0.000000 0.000000 1.000000
vn 0.000000 0.000000 1.000000
vn 0.000000 0.000000 1.000000
vn -1.000000 0.000000 0.000000
vn -1.000000 0.000000 0.000000
vn -1.000000 0.000000 0.000000
vn -1.000000 0.000000 0.000000
vn 1.000000 0.000000 0.000000
vn 1.000000 0.000000 0.000000
vn 1.000000 0.000000 0.000000
vn 1.000000 0.000000 0.000000
vn 0.000000 0.000000 -1.000000
vn 0.000000 0.000000 -1.000000
vn 0.000000 0.000000 -1.000000
vn 0.000000 0.000000 -1.000000
vn -0.577413 0.577350 0.577288
vn -0.577413 0.577350 0.577288
vn -0.577413 0.577350 0.577288
vn -0.577413 0.577350 -0.577288
vn -0.577413 0.577350 -0.577288
vn -0.577413 0.577350 -0.577288
vn 0.577413 0.577350 0.577288
vn 0.577413 0.577350 0.577288
vn 0.577413 0.577350 0.577288
vn 0.577413 0.577350 -0.577288
vn 0.577413 0.577350 -0.577288
vn 0.577413 0.577350 -0.577288
s off
g polySurface1427
usemtl lambert3SG
f 7/21/1 6/22/2 17/23/3 16/24/4 12/25/5 11/26/6 2/27/7 1/28/8
f 1/3/9 2/7/10 5/8/11 4/4/12
f 3/30/13 5/33/14 14/34/15 13/31/16
f 4/4/17 3/9/18 10/10/19 9/1/20
f 6/5/21 7/2/22 9/1/23 8/6/24
f 8/35/25 10/29/26 18/32/27 20/36/28
f 11/15/29 12/12/30 15/11/31 14/16/32
f 13/19/33 15/11/34 19/14/35 18/20/36
f 16/13/37 17/17/38 20/18/39 19/14/40
f 10/29/41 3/30/42 13/31/43 18/32/44
f 5/37/45 2/38/46 11/39/47 14/40/48
f 9/1/49 7/2/50 1/3/51 4/4/52
f 15/11/53 12/12/54 16/13/55 19/14/56
f 8/41/57 20/42/58 17/43/59 6/44/60
f 3/9/61 4/4/62 5/8/63
f 8/6/64 9/1/65 10/10/66
f 13/19/67 14/16/68 15/11/69
f 18/20/70 19/14/71 20/18/72
